<svg width="32" height="38" viewBox="0 0 32 38" fill="none" xmlns="http://www.w3.org/2000/svg">
<rect x="0.484375" y="0.939148" width="30.5965" height="36.7158" rx="5.24511" fill="white" fill-opacity="0.02"/>
<g style="mix-blend-mode:overlay" filter="url(#filter0_i_4001_1394)">
<rect x="0.484375" y="0.939148" width="30.5965" height="36.7158" rx="5.24511" fill="black" fill-opacity="0.01"/>
</g>
<g style="mix-blend-mode:overlay">
<path d="M1.05859 9.61319V9.32635H0.771752V9.61319H1.05859ZM30.8889 9.61319H31.1757V9.32635H30.8889V9.61319ZM30.8889 10.1869V10.4737H31.1757V10.1869H30.8889ZM1.05859 10.1869H0.771752V10.4737H1.05859V10.1869ZM1.05859 28.8446V28.5577H0.771752V28.8446H1.05859ZM30.8889 28.8446H31.1757V28.5577H30.8889V28.8446ZM30.8889 29.4182V29.7051H31.1757V29.4182H30.8889ZM1.05859 29.4182H0.771752V29.7051H1.05859V29.4182ZM9.29562 9.61222H9.58246V9.32538H9.29562V9.61222ZM9.29562 29.4175V29.7043H9.58246V29.4175H9.29562ZM8.72194 29.4175H8.43509V29.7043H8.72194V29.4175ZM8.72194 9.61222V9.32538H8.43509V9.61222H8.72194ZM15.8509 1.51428H16.1378V1.22744H15.8509V1.51428ZM15.8509 10.1876V10.4745H16.1378V10.1876H15.8509ZM15.2772 10.1876H14.9904V10.4745H15.2772V10.1876ZM15.2772 1.51428V1.22744H14.9904V1.51428H15.2772ZM20.2221 28.8459H19.9352V29.1327H20.2221V28.8459ZM30.8885 28.8459H31.1754V28.5591H30.8885V28.8459ZM30.8885 29.4196V29.7064H31.1754V29.4196H30.8885ZM19.6484 29.4196H19.3616V29.7064H19.6484V29.4196ZM30.8885 16.1706H31.1754V15.8837H30.8885V16.1706ZM30.8885 16.7442V17.0311H31.1754V16.7442H30.8885ZM19.6484 22.5073V22.2204H19.3616V22.5073H19.6484ZM30.8885 22.5073H31.1754V22.2204H30.8885V22.5073ZM30.8885 23.081V23.3678H31.1754V23.081H30.8885ZM19.6484 23.081H19.3616V23.3678H19.6484V23.081ZM1.05859 16.0238V15.737H0.771752V16.0238H1.05859ZM9.29561 16.0238H9.58246V15.737H9.29561V16.0238ZM9.29561 16.5975V16.8843H9.58246V16.5975H9.29561ZM1.05859 16.5975H0.771752V16.8843H1.05859V16.5975ZM1.05859 22.4347V22.1478H0.771752V22.4347H1.05859ZM9.29561 22.4347H9.58246V22.1478H9.29561V22.4347ZM9.29561 23.0084V23.2952H9.58246V23.0084H9.29561ZM1.05859 23.0084H0.771752V23.2952H1.05859V23.0084ZM15.8514 28.8448H16.1383V28.558H15.8514V28.8448ZM15.8514 37.0811V37.368H16.1383V37.0811H15.8514ZM15.2777 37.0811H14.9909V37.368H15.2777V37.0811ZM15.2777 28.8448V28.558H14.9909V28.8448H15.2777ZM1.34544 9.32635H1.05859V9.90003H1.34544V9.32635ZM30.602 9.32635H1.34544V9.90003H30.602V9.32635ZM30.8889 9.32635H30.602V9.90003H30.8889V9.32635ZM31.1757 10.1869V9.61319H30.602V10.1869H31.1757ZM30.602 10.4737H30.8889V9.90003H30.602V10.4737ZM1.34544 10.4737H30.602V9.90003H1.34544V10.4737ZM1.05859 10.4737H1.34544V9.90003H1.05859V10.4737ZM0.771752 9.61319V10.1869H1.34544V9.61319H0.771752ZM1.34544 28.5577H1.05859V29.1314H1.34544V28.5577ZM30.602 28.5577H1.34544V29.1314H30.602V28.5577ZM30.8889 28.5577H30.602V29.1314H30.8889V28.5577ZM31.1757 29.4182V28.8446H30.602V29.4182H31.1757ZM30.602 29.7051H30.8889V29.1314H30.602V29.7051ZM1.34544 29.7051H30.602V29.1314H1.34544V29.7051ZM1.05859 29.7051H1.34544V29.1314H1.05859V29.7051ZM0.771752 28.8446V29.4182H1.34544V28.8446H0.771752ZM9.58246 9.89906V9.61222H9.00878V9.89906H9.58246ZM9.58246 29.1306V9.89906H9.00878V29.1306H9.58246ZM9.58246 29.4175V29.1306H9.00878V29.4175H9.58246ZM8.72194 29.7043H9.29562V29.1306H8.72194V29.7043ZM8.43509 29.1306V29.4175H9.00878V29.1306H8.43509ZM8.43509 9.89906V29.1306H9.00878V9.89906H8.43509ZM8.43509 9.61222V9.89906H9.00878V9.61222H8.43509ZM9.29562 9.32538H8.72194V9.89906H9.29562V9.32538ZM16.1378 1.80112V1.51428H15.5641V1.80112H16.1378ZM16.1378 9.90079V1.80112H15.5641V9.90079H16.1378ZM16.1378 10.1876V9.90079H15.5641V10.1876H16.1378ZM15.2772 10.4745H15.8509V9.90079H15.2772V10.4745ZM14.9904 9.90079V10.1876H15.5641V9.90079H14.9904ZM14.9904 1.80112V9.90079H15.5641V1.80112H14.9904ZM14.9904 1.51428V1.80112H15.5641V1.51428H14.9904ZM15.8509 1.22744H15.2772V1.80112H15.8509V1.22744ZM20.5089 19.954C20.5089 18.3397 21.8176 17.0311 23.4318 17.0311V16.4574C21.5007 16.4574 19.9352 18.0229 19.9352 19.954H20.5089ZM20.5089 28.8459V19.954H19.9352V28.8459H20.5089ZM30.6017 28.5591H20.2221V29.1327H30.6017V28.5591ZM30.8885 28.5591H30.6017V29.1327H30.8885V28.5591ZM31.1754 29.4196V28.8459H30.6017V29.4196H31.1754ZM30.6017 29.7064H30.8885V29.1327H30.6017V29.7064ZM19.9352 29.7064H30.6017V29.1327H19.9352V29.7064ZM19.6484 29.7064H19.9352V29.1327H19.6484V29.7064ZM19.3616 29.1327V29.4196H19.9352V29.1327H19.3616ZM19.3616 19.954V29.1327H19.9352V19.954H19.3616ZM23.4318 15.8837C21.1839 15.8837 19.3616 17.7061 19.3616 19.954H19.9352C19.9352 18.0229 21.5007 16.4574 23.4318 16.4574V15.8837ZM30.6017 15.8837H23.4318V16.4574H30.6017V15.8837ZM30.8885 15.8837H30.6017V16.4574H30.8885V15.8837ZM31.1754 16.7442V16.1706H30.6017V16.7442H31.1754ZM30.6017 17.0311H30.8885V16.4574H30.6017V17.0311ZM23.4318 17.0311H30.6017V16.4574H23.4318V17.0311ZM19.9352 22.2204H19.6484V22.7941H19.9352V22.2204ZM30.6017 22.2204H19.9352V22.7941H30.6017V22.2204ZM30.8885 22.2204H30.6017V22.7941H30.8885V22.2204ZM31.1754 23.081V22.5073H30.6017V23.081H31.1754ZM30.6017 23.3678H30.8885V22.7941H30.6017V23.3678ZM19.9352 23.3678H30.6017V22.7941H19.9352V23.3678ZM19.6484 23.3678H19.9352V22.7941H19.6484V23.3678ZM19.3616 22.5073V23.081H19.9352V22.5073H19.3616ZM1.34544 15.737H1.05859V16.3107H1.34544V15.737ZM9.00877 15.737H1.34544V16.3107H9.00877V15.737ZM9.29561 15.737H9.00877V16.3107H9.29561V15.737ZM9.58246 16.5975V16.0238H9.00877V16.5975H9.58246ZM9.00877 16.8843H9.29561V16.3107H9.00877V16.8843ZM1.34544 16.8843H9.00877V16.3107H1.34544V16.8843ZM1.05859 16.8843H1.34544V16.3107H1.05859V16.8843ZM0.771752 16.0238V16.5975H1.34544V16.0238H0.771752ZM1.34544 22.1478H1.05859V22.7215H1.34544V22.1478ZM9.00877 22.1478H1.34544V22.7215H9.00877V22.1478ZM9.29561 22.1478H9.00877V22.7215H9.29561V22.1478ZM9.58246 23.0084V22.4347H9.00877V23.0084H9.58246ZM9.00877 23.2952H9.29561V22.7215H9.00877V23.2952ZM1.34544 23.2952H9.00877V22.7215H1.34544V23.2952ZM1.05859 23.2952H1.34544V22.7215H1.05859V23.2952ZM0.771752 22.4347V23.0084H1.34544V22.4347H0.771752ZM16.1383 29.1317V28.8448H15.5646V29.1317H16.1383ZM16.1383 36.7943V29.1317H15.5646V36.7943H16.1383ZM16.1383 37.0811V36.7943H15.5646V37.0811H16.1383ZM15.2777 37.368H15.8514V36.7943H15.2777V37.368ZM14.9909 36.7943V37.0811H15.5646V36.7943H14.9909ZM14.9909 29.1317V36.7943H15.5646V29.1317H14.9909ZM14.9909 28.8448V29.1317H15.5646V28.8448H14.9909ZM15.8514 28.558H15.2777V29.1317H15.8514V28.558Z" fill="url(#paint0_linear_4001_1394)"/>
</g>
<g style="mix-blend-mode:overlay">
<rect x="0.771217" y="1.22599" width="30.4053" height="36.1421" rx="4.95827" stroke="url(#paint1_linear_4001_1394)" stroke-width="0.573684"/>
</g>
<defs>
<filter id="filter0_i_4001_1394" x="0.484375" y="0.939148" width="31.744" height="36.7158" filterUnits="userSpaceOnUse" color-interpolation-filters="sRGB">
<feFlood flood-opacity="0" result="BackgroundImageFix"/>
<feBlend mode="normal" in="SourceGraphic" in2="BackgroundImageFix" result="shape"/>
<feColorMatrix in="SourceAlpha" type="matrix" values="0 0 0 0 0 0 0 0 0 0 0 0 0 0 0 0 0 0 127 0" result="hardAlpha"/>
<feOffset dx="1.14737"/>
<feGaussianBlur stdDeviation="1.14737"/>
<feComposite in2="hardAlpha" operator="arithmetic" k2="-1" k3="1"/>
<feColorMatrix type="matrix" values="0 0 0 0 0 0 0 0 0 0 0 0 0 0 0 0 0 0 0.4 0"/>
<feBlend mode="normal" in2="shape" result="effect1_innerShadow_4001_1394"/>
</filter>
<linearGradient id="paint0_linear_4001_1394" x1="30.8889" y1="1.51428" x2="1.05859" y2="1.51428" gradientUnits="userSpaceOnUse">
<stop stop-color="white"/>
<stop offset="1" stop-color="white" stop-opacity="0.2"/>
</linearGradient>
<linearGradient id="paint1_linear_4001_1394" x1="0.484375" y1="37.6549" x2="31.4633" y2="37.6549" gradientUnits="userSpaceOnUse">
<stop stop-opacity="0.2"/>
<stop offset="1" stop-color="white"/>
</linearGradient>
</defs>
</svg>
