<svg width="28" height="28" viewBox="0 0 28 28" fill="none" xmlns="http://www.w3.org/2000/svg">
<path d="M22.0296 14.2151C21.6689 13.8528 21.3928 13.4156 21.2208 12.9347C21.0487 12.4537 20.968 11.9579 21.0171 11.4496C21.0678 10.8512 20.9869 10.249 20.7803 9.68501C20.5737 9.12108 20.2464 8.60892 19.8212 8.18426C19.3958 7.7597 18.8829 7.4328 18.3179 7.22664C17.7531 7.02039 17.1499 6.93964 16.5506 6.99018C15.8338 7.05678 15.1309 6.88397 14.5058 6.52705C13.8808 6.17013 13.3813 5.62947 13.0754 4.9787C12.7694 4.32794 12.6719 3.59889 12.7962 2.89075C12.9205 2.1827 13.2605 1.53013 13.7699 1.02206C14.2792 0.513986 14.9331 0.175115 15.6424 0.0517073C16.3518 -0.0717955 17.0819 0.026247 17.7334 0.332249C18.3849 0.638345 18.926 1.13748 19.2829 1.76184C19.6398 2.38619 19.7952 3.10517 19.7278 3.82091C19.6772 4.41924 19.7761 5.00435 19.9826 5.56838C20.1892 6.13231 20.5166 6.64447 20.9419 7.06913C21.3672 7.49369 21.8802 7.82059 22.445 8.02675C23.0099 8.233 23.595 8.33085 24.1943 8.28031C24.7799 8.22777 25.3694 8.32363 25.908 8.55904C26.4466 8.79446 26.917 9.16183 27.2756 9.62706C27.6341 10.0923 27.8693 10.6404 27.9592 11.2205C28.0491 11.8007 27.9909 12.3941 27.7899 12.9459C27.5889 13.4975 27.2517 13.9896 26.8095 14.3766C26.3673 14.7635 25.8345 15.0328 25.2603 15.1593C24.6862 15.2859 24.0893 15.2657 23.525 15.1007C22.9608 14.9356 22.4474 14.631 22.0324 14.2151H22.0296Z" fill="white"/>
<path d="M13.6753 10.5463C14.1847 10.4951 14.681 10.5746 15.1633 10.7462C15.6455 10.9178 16.0836 11.1941 16.4458 11.5554C16.8078 11.9167 17.0851 12.3539 17.2573 12.8353C17.4295 13.3167 17.4924 13.8302 17.4415 14.3388C17.3909 14.9372 17.4898 15.5222 17.6963 16.0863C17.9029 16.6502 18.2303 17.1624 18.6555 17.587C19.0809 18.0116 19.5938 18.3385 20.1587 18.5446C20.7236 18.7509 21.3267 18.8316 21.9261 18.7811C22.643 18.7138 23.3452 18.8862 23.9705 19.2427C24.596 19.5992 25.0959 20.1397 25.4023 20.7903C25.7087 21.4409 25.8066 22.1701 25.6827 22.8783C25.5588 23.5866 25.2191 24.2394 24.7099 24.7478C24.2007 25.2562 23.5468 25.5954 22.8374 25.7191C22.1281 25.8428 21.3978 25.7451 20.7461 25.4391C20.0944 25.1332 19.5531 24.634 19.196 24.0097C18.8389 23.3853 18.6663 22.6842 18.7337 21.9684C18.7844 21.37 18.7037 20.7678 18.4972 20.2037C18.2907 19.6397 17.9633 19.1274 17.5381 18.7027C17.1127 18.2782 16.5997 17.9513 16.0347 17.7451C15.4697 17.5389 14.8837 17.4403 14.2843 17.491C13.7749 17.5422 13.2604 17.4798 12.7782 17.3082C12.296 17.1367 11.8579 16.8602 11.4957 16.499C11.1336 16.1377 10.8564 15.7005 10.6841 15.2191C10.512 14.7377 10.432 14.2413 10.4829 13.7327C10.5333 13.1344 10.4524 12.5322 10.2458 11.9683C10.0391 11.4045 9.71177 10.8923 9.28653 10.4678C8.86125 10.0432 8.34834 9.71638 7.78354 9.51003C7.21875 9.30379 6.61568 9.22294 6.01639 9.27329C5.29943 9.34055 4.59627 9.16822 3.97091 8.81168C3.34557 8.45513 2.84558 7.91476 2.53918 7.26409C2.23276 6.61342 2.13483 5.88428 2.25875 5.17604C2.38267 4.4678 2.7224 3.81495 3.2316 3.30659C3.7408 2.79814 4.39468 2.45899 5.10406 2.33529C5.81344 2.2116 6.54377 2.30936 7.19545 2.61526C7.84712 2.92117 8.38842 3.42031 8.74549 4.04466C9.1026 4.66911 9.27616 5.37108 9.20879 6.08692C9.15817 6.68534 9.23905 7.28746 9.44563 7.85149C9.65211 8.41542 9.97953 8.92758 10.4048 9.35224C10.8301 9.7768 11.3431 10.1037 11.9079 10.3099C12.4728 10.5161 13.0759 10.5969 13.6753 10.5463Z" fill="white"/>
<path d="M5.96603 13.7868C6.32668 14.1489 6.6028 14.5861 6.77468 15.0671C6.94657 15.5481 7.02805 16.044 6.97845 16.5523C6.92783 17.1508 7.00867 17.7532 7.21536 18.3173C7.42204 18.8814 7.74959 19.3937 8.17511 19.8184C8.60064 20.243 9.1138 20.5698 9.67892 20.7759C10.244 20.982 10.8474 21.0625 11.4469 21.0117C12.1636 20.9446 12.8655 21.1171 13.4906 21.4735C14.1156 21.83 14.6153 22.3703 14.9216 23.0208C15.2278 23.6712 15.3256 24.4001 15.2017 25.1081C15.0778 25.8161 14.7381 26.4687 14.2292 26.9769C13.7202 27.4851 13.0665 27.8241 12.3574 27.9479C11.6483 28.0716 10.9182 27.9739 10.2668 27.6682C9.61526 27.3624 9.07412 26.8635 8.71711 26.2394C8.36 25.6154 8.18729 24.9136 8.25447 24.198C8.30509 23.5997 8.22421 22.9975 8.01763 22.4335C7.81106 21.8695 7.48375 21.3574 7.05845 20.9328C6.63316 20.5081 6.12017 20.1813 5.5553 19.9751C4.99043 19.7689 4.40442 19.671 3.80509 19.7216C3.21949 19.774 2.6301 19.6779 2.09155 19.4424C1.553 19.2069 1.0827 18.8395 0.72425 18.3741C0.365798 17.9089 0.130787 17.3607 0.0409816 16.7807C-0.0488148 16.2005 0.00950479 15.6071 0.210536 15.0555C0.411566 14.5038 0.748819 14.0118 1.19103 13.625C1.63323 13.238 2.16609 12.9689 2.74023 12.8424C3.31436 12.7159 3.91119 12.7361 4.47542 12.9012C5.03964 13.0663 5.553 13.3709 5.96792 13.7868H5.96603Z" fill="white"/>
</svg>
