<svg width="29" height="19" viewBox="0 0 29 19" fill="none" xmlns="http://www.w3.org/2000/svg">
<path fill-rule="evenodd" clip-rule="evenodd" d="M13.6386 16.9603C13.708 17.0189 13.7822 17.0776 13.8553 17.1351C12.4461 18.0725 10.7544 18.6173 8.93814 18.6173C4.03299 18.6184 0.0581055 14.6436 0.0581055 9.73961C0.0581055 4.83686 4.03299 0.860779 8.93694 0.860779C10.7544 0.860779 12.4461 1.40673 13.8517 2.34298L13.8118 2.37653C13.7538 2.42512 13.698 2.47186 13.6541 2.52257C11.5517 4.3388 10.3485 6.97156 10.3485 9.73961C10.3485 12.5065 11.547 15.1392 13.6386 16.9603ZM19.9137 0.860779C18.0939 0.860779 16.4046 1.40673 14.999 2.34298L15.0389 2.37653C15.0969 2.42512 15.1527 2.47186 15.1966 2.52257C17.2989 4.3388 18.5022 6.97156 18.5022 9.73961C18.5022 12.5053 17.3037 15.1356 15.2121 16.9603C15.1427 17.0189 15.0685 17.0776 14.9954 17.1351C16.4046 18.0725 18.0939 18.6173 19.9125 18.6173C24.8177 18.6184 28.7926 14.6436 28.7926 9.73961C28.7926 4.83806 24.8177 0.860779 19.9137 0.860779ZM14.09 3.0412C14.199 2.94422 14.3103 2.85442 14.4253 2.76463C14.5402 2.85442 14.6528 2.94542 14.7605 3.0412C16.633 4.66826 17.8147 7.06397 17.8147 9.73983C17.8147 12.4169 16.6318 14.8114 14.7605 16.4385C14.6516 16.5342 14.5402 16.6276 14.4253 16.7162C14.3115 16.6276 14.1978 16.5342 14.09 16.4385C12.2175 14.8114 11.0359 12.4169 11.0359 9.73983C11.0359 7.06397 12.2175 4.66826 14.09 3.0412Z" fill="white" fill-opacity="0.6"/>
</svg>
