<svg width="30" height="30" viewBox="0 0 30 30" fill="none" xmlns="http://www.w3.org/2000/svg">
<circle cx="15" cy="15" r="13.125" fill="#1ED760"/>
<path d="M20.9666 20.2715C20.7423 20.6273 20.264 20.7269 19.8902 20.5135C16.9453 18.8056 13.2528 18.4214 8.88772 19.3607C8.46914 19.4461 8.05057 19.2041 7.96088 18.8056C7.87118 18.4071 8.12532 18.0086 8.54389 17.9232C13.3126 16.8843 17.4087 17.3255 20.6975 19.2468C21.0712 19.4603 21.1908 19.9157 20.9666 20.2715ZM22.4914 17.0266C22.2073 17.4678 21.6094 17.5959 21.146 17.3397C17.7824 15.3615 12.6549 14.7922 8.67843 15.945C8.15521 16.0873 7.61705 15.8169 7.46756 15.333C7.31807 14.8349 7.6021 14.3225 8.12532 14.1802C12.6698 12.8709 18.3206 13.4971 22.1924 15.76C22.6259 16.0161 22.7754 16.5854 22.4914 17.0266ZM22.6259 13.6394C18.5897 11.3623 11.9373 11.1488 8.08047 12.2589C7.46756 12.4439 6.8098 12.1166 6.61546 11.5188C6.42112 10.9353 6.7799 10.3091 7.39281 10.1241C11.8177 8.84319 19.1727 9.09937 23.8069 11.7181C24.36 12.0312 24.5394 12.7143 24.2105 13.2409C23.8966 13.7817 23.179 13.9667 22.6259 13.6394Z" fill="white"/>
</svg>
