<svg width="30" height="30" viewBox="0 0 30 30" fill="none" xmlns="http://www.w3.org/2000/svg">
<path d="M23.2955 9.01616C23.5876 7.1111 23.2955 5.84106 22.2728 4.66871C21.1527 3.34982 19.1074 2.8125 16.4777 2.8125H8.92954C8.39386 2.8125 7.95558 3.20328 7.85818 3.74061L4.69281 23.7682C4.64411 24.1589 4.9363 24.5009 5.32588 24.5009H10.0009L9.66001 26.5525C9.61131 26.8944 9.8548 27.1875 10.2444 27.1875H14.1889C14.6759 27.1875 15.0655 26.8456 15.1142 26.4059L15.9421 21.2281C15.9908 20.7885 16.429 20.4465 16.8673 20.4465H17.4517C21.2501 20.4465 24.2694 18.8834 25.146 14.3894C25.4869 12.5332 25.3408 10.9212 24.3668 9.84657C24.0746 9.50463 23.7337 9.2604 23.2955 9.01616Z" fill="#009CDE"/>
<path d="M23.2955 9.01616C23.5876 7.1111 23.2955 5.84106 22.2728 4.66871C21.1527 3.34982 19.1074 2.8125 16.4777 2.8125H8.92954C8.39386 2.8125 7.95558 3.20328 7.85818 3.74061L4.69281 23.7682C4.64411 24.1589 4.9363 24.5009 5.32588 24.5009H10.0009L11.1209 17.2714C11.2183 16.7341 11.6566 16.3433 12.1923 16.3433H14.4324C18.8152 16.3433 22.2241 14.5848 23.1981 9.40694C23.2468 9.30924 23.2468 9.1627 23.2955 9.01616Z" fill="#012169"/>
<path d="M12.4358 9.065C12.4845 8.72307 12.9228 8.28344 13.3611 8.28344H19.3022C19.984 8.28344 20.6658 8.33229 21.2501 8.42998C21.7858 8.52768 22.7598 8.77192 23.2468 9.065C23.5389 7.15994 23.2468 5.8899 22.2241 4.71756C21.1527 3.34982 19.1074 2.8125 16.4777 2.8125H8.92954C8.39386 2.8125 7.95558 3.20328 7.85818 3.74061L4.69281 23.7682C4.64411 24.1589 4.9363 24.5009 5.32588 24.5009H10.0009L12.4358 9.065Z" fill="#003087"/>
</svg>
