<svg width="32" height="32" viewBox="0 0 32 32" fill="none" xmlns="http://www.w3.org/2000/svg">
<path opacity="0.4" fill-rule="evenodd" clip-rule="evenodd" d="M12.2518 4.99629C12.2518 4.44585 11.7971 4 11.2371 4H11.2358L9.0638 4.00131C6.14247 4.00392 3.76514 6.33775 3.76514 9.20372V11.6827C3.76514 12.2318 4.2198 12.679 4.7798 12.679C5.3398 12.679 5.7958 12.2318 5.7958 11.6827V9.20372C5.7958 7.43472 7.26247 5.99519 9.06514 5.99258L11.2371 5.99127C11.7985 5.99127 12.2518 5.54543 12.2518 4.99629ZM22.925 4.00054H20.801C20.241 4.00054 19.7863 4.44639 19.7863 4.99683C19.7863 5.54597 20.241 5.99051 20.801 5.99051H22.925C24.7343 5.99051 26.2063 7.43395 26.2063 9.20818V11.6832C26.2063 12.2324 26.661 12.6795 27.221 12.6795C27.7823 12.6795 28.2356 12.2324 28.2356 11.6832V9.20818C28.2356 6.33568 25.8543 4.00054 22.925 4.00054ZM12.3182 8.99018H19.6836C20.4902 8.99018 21.2649 9.30789 21.8289 9.87402C22.3969 10.4454 22.7116 11.2129 22.7102 12.0117V13.6722C22.7036 13.867 22.5449 14.0252 22.3462 14.0305H9.6529C9.45557 14.0239 9.2969 13.8657 9.2929 13.6722V12.0117C9.27824 10.3578 10.6329 9.00717 12.3182 8.99018Z" fill="white"/>
<path d="M29.6522 16.0551H2.3495C1.7895 16.0551 1.3335 16.5009 1.3335 17.0513C1.3335 17.6005 1.7895 18.045 2.3495 18.045H3.76416V22.7964C3.76416 25.6623 6.14283 27.9962 9.06416 27.9988L11.2362 28.0001C11.7975 28.0001 12.2508 27.5542 12.2522 27.0038C12.2522 26.4546 11.7975 26.0088 11.2375 26.0088L9.06683 26.0075C7.26283 26.0049 5.79483 24.5654 5.79483 22.7964V18.045H9.29216V19.3669C9.27883 21.0208 10.6322 22.3727 12.3175 22.3884H19.6828C21.3695 22.3727 22.7228 21.0208 22.7095 19.3669V18.045H26.2068V22.7911C26.2068 24.5667 24.7348 26.0088 22.9255 26.0088H20.8015C20.2402 26.0088 19.7855 26.4546 19.7855 27.0038C19.7855 27.5542 20.2402 28.0001 20.8015 28.0001H22.9255C25.8535 28.0001 28.2362 25.6649 28.2362 22.7911V18.045H29.6522C30.2122 18.045 30.6668 17.6005 30.6668 17.0513C30.6668 16.5009 30.2122 16.0551 29.6522 16.0551Z" fill="white"/>
</svg>
