<svg width="55" height="55" viewBox="0 0 55 55" fill="none" xmlns="http://www.w3.org/2000/svg">
<rect x="0.666504" y="0.626465" width="54" height="54" rx="27" fill="#EEF4FF"/>
<rect x="15.1611" y="18.2708" width="25.0108" height="12.7173" rx="1.82812" fill="url(#paint0_linear_4001_1239)"/>
<path fill-rule="evenodd" clip-rule="evenodd" d="M36.2506 18.2704L26.1216 30.9878H16.9882C16.0379 30.9878 15.257 30.2627 15.1685 29.3356L27.2604 18.2704H36.2506Z" fill="#94E3A6"/>
<path fill-rule="evenodd" clip-rule="evenodd" d="M36.8011 18.2712H38.3433C39.3529 18.2712 40.1714 19.0897 40.1714 20.0994V21.718C40.0544 21.732 39.9353 21.7392 39.8146 21.7392C38.1388 21.7392 36.7803 20.35 36.7803 18.6364C36.7803 18.5128 36.7873 18.391 36.8011 18.2712Z" fill="#62BD76"/>
<path fill-rule="evenodd" clip-rule="evenodd" d="M15.5263 21.7392C17.2399 21.7392 18.6291 20.35 18.6291 18.6364C18.6291 18.5127 18.6219 18.3907 18.6078 18.2708H16.9893C15.9796 18.2708 15.1611 19.0892 15.1611 20.0989V21.7179C15.2809 21.732 15.4027 21.7392 15.5263 21.7392Z" fill="#62BD76"/>
<rect x="13.0415" y="22.1423" width="29.25" height="15.5391" rx="1.82812" fill="url(#paint1_linear_4001_1239)"/>
<path fill-rule="evenodd" clip-rule="evenodd" d="M38.2888 22.1423H40.4632C41.4728 22.1423 42.2913 22.9608 42.2913 23.9705V26.1444C42.1523 26.1606 42.0108 26.169 41.8674 26.169C39.8774 26.169 38.2642 24.5558 38.2642 22.5658C38.2642 22.4225 38.2725 22.2812 38.2888 22.1423Z" fill="#2C40B6"/>
<path fill-rule="evenodd" clip-rule="evenodd" d="M42.2914 33.7682V35.8534C42.2914 36.8631 41.4729 37.6816 40.4633 37.6816H38.2888C38.2725 37.5457 38.2642 37.4074 38.2642 37.2672C38.2642 35.3214 39.8774 33.744 41.8674 33.744C42.0108 33.744 42.1523 33.7522 42.2914 33.7682Z" fill="#2C40B6"/>
<ellipse cx="27.6665" cy="30.3689" rx="2.74219" ry="2.74219" fill="#2C40B6"/>
<path fill-rule="evenodd" clip-rule="evenodd" d="M13.4653 26.1691C15.4554 26.1691 17.0686 24.5558 17.0686 22.5658C17.0686 22.4226 17.0602 22.2812 17.044 22.1423H14.8696C13.86 22.1423 13.0415 22.9608 13.0415 23.9705V26.1444C13.1805 26.1607 13.322 26.1691 13.4653 26.1691Z" fill="#2C40B6"/>
<path fill-rule="evenodd" clip-rule="evenodd" d="M17.0444 37.6814H14.8701C13.8605 37.6814 13.042 36.863 13.042 35.8533V33.7679C13.181 33.752 13.3225 33.7438 13.4658 33.7438C15.4559 33.7438 17.0691 35.3211 17.0691 37.2667C17.0691 37.407 17.0607 37.5454 17.0444 37.6814Z" fill="#2C40B6"/>
<path opacity="0.2" d="M13.0415 23.9705C13.0415 22.9608 13.86 22.1423 14.8696 22.1423H40.4634C41.473 22.1423 42.2915 22.9608 42.2915 23.9705V35.8533C42.2915 36.8629 41.473 37.6814 40.4634 37.6814H14.8696C13.86 37.6814 13.0415 36.8629 13.0415 35.8533V23.9705Z" fill="#E1DCFF"/>
<circle cx="28.1235" cy="19.8575" r="5.02734" fill="#FAC515"/>
<path d="M27.8768 23.0541V16.6264H28.3594V23.0541H27.8768ZM28.1839 22.5057C27.8134 22.5057 27.4819 22.4423 27.1894 22.3155C26.9018 22.1888 26.6727 22.0035 26.502 21.7598C26.3363 21.516 26.251 21.2211 26.2461 20.875H27.2918C27.2967 21.0261 27.3357 21.1626 27.4088 21.2845C27.4819 21.4063 27.5818 21.5038 27.7086 21.577C27.8402 21.6452 27.9962 21.6793 28.1766 21.6793C28.3326 21.6793 28.4667 21.655 28.5788 21.6062C28.6958 21.5526 28.786 21.4795 28.8493 21.3868C28.9127 21.2942 28.9444 21.1845 28.9444 21.0578C28.9444 20.9115 28.9078 20.7897 28.8347 20.6922C28.7665 20.5947 28.669 20.5118 28.5422 20.4435C28.4203 20.3753 28.2765 20.3143 28.1108 20.2607C27.9499 20.2022 27.7793 20.1413 27.5989 20.0779C27.1943 19.9463 26.8847 19.7708 26.6702 19.5514C26.4606 19.332 26.3558 19.042 26.3558 18.6812C26.3558 18.3741 26.4289 18.1108 26.5752 17.8915C26.7263 17.6721 26.9335 17.5039 27.1967 17.3869C27.46 17.2699 27.7598 17.2114 28.0962 17.2114C28.4423 17.2114 28.7445 17.2723 29.0029 17.3942C29.2662 17.5112 29.4733 17.6818 29.6245 17.9061C29.7805 18.1303 29.8609 18.3936 29.8658 18.6958H28.8128C28.8079 18.5837 28.7738 18.4789 28.7104 18.3814C28.6519 18.279 28.569 18.1986 28.4618 18.1401C28.3545 18.0767 28.2278 18.045 28.0815 18.045C27.9548 18.0402 27.8378 18.0597 27.7305 18.1035C27.6282 18.1474 27.5453 18.2132 27.4819 18.301C27.4234 18.3838 27.3942 18.4887 27.3942 18.6154C27.3942 18.7373 27.4234 18.8397 27.4819 18.9225C27.5453 19.0054 27.6306 19.0785 27.7378 19.1419C27.8451 19.2004 27.9718 19.2565 28.1181 19.3101C28.2643 19.3588 28.4228 19.41 28.5934 19.4637C28.8469 19.5514 29.0809 19.6562 29.2954 19.7781C29.5099 19.8951 29.6805 20.0487 29.8073 20.2388C29.934 20.4289 29.9974 20.68 29.9974 20.992C29.9974 21.2601 29.9267 21.5087 29.7853 21.7378C29.644 21.967 29.4392 22.1522 29.1711 22.2936C28.9078 22.435 28.5788 22.5057 28.1839 22.5057Z" fill="#444CE7"/>
<defs>
<linearGradient id="paint0_linear_4001_1239" x1="44.4726" y1="9.73339" x2="28.0916" y2="53.0415" gradientUnits="userSpaceOnUse">
<stop stop-color="#90DDA1"/>
<stop offset="1" stop-color="#6BCB80"/>
</linearGradient>
<linearGradient id="paint1_linear_4001_1239" x1="27.6665" y1="22.1423" x2="27.6827" y2="42.66" gradientUnits="userSpaceOnUse">
<stop stop-color="#4C61E1"/>
<stop offset="1" stop-color="#6172F3"/>
</linearGradient>
</defs>
</svg>
