<svg width="54" height="55" viewBox="0 0 54 55" fill="none" xmlns="http://www.w3.org/2000/svg">
<rect y="0.626465" width="54" height="54" rx="27" fill="#EEF4FF"/>
<path d="M29.3805 16.655L39.8272 25.047C40.2816 25.412 40.2829 26.1033 39.8299 26.4701L29.3911 34.9202C28.0579 35.9993 26.1538 36.0067 24.8123 34.9379L14.1898 26.4745C13.7294 26.1077 13.7307 25.4077 14.1925 25.0426L24.8231 16.6374C26.1605 15.5799 28.0513 15.5872 29.3805 16.655Z" fill="#2A3891"/>
<path fill-rule="evenodd" clip-rule="evenodd" d="M24.0552 34.3372L17.8599 29.4011V28.5435L29.5832 16.8203L34.0491 20.4078L24.0552 34.3372Z" fill="#404EA4"/>
<rect x="17.8599" y="23.0568" width="18.2812" height="9.14062" rx="0.914062" fill="url(#paint0_linear_4001_1217)"/>
<path fill-rule="evenodd" clip-rule="evenodd" d="M32.2338 23.0568L25.1534 32.1974H18.7739C18.2691 32.1974 17.8599 31.7881 17.8599 31.2833V28.5411L23.3442 23.0568H32.2338Z" fill="#94E3A6"/>
<path d="M13.2891 37.6818V26.2602C13.2891 24.8447 14.8284 23.9662 16.0471 24.6862L25.1874 30.0863C26.3386 30.7664 27.7692 30.7639 28.918 30.0798L37.9474 24.7025C39.166 23.9768 40.7109 24.8549 40.7109 26.2732V37.6818C40.7109 38.6914 39.8925 39.5099 38.8828 39.5099H15.1172C14.1075 39.5099 13.2891 38.6914 13.2891 37.6818Z" fill="url(#paint1_linear_4001_1217)"/>
<path d="M28.2653 28.5679L39.6455 37.8883C40.3099 38.4324 39.9251 39.5095 39.0663 39.5095H27.1161H14.9654C14.1031 39.5095 13.7204 38.425 14.3917 37.8838L25.9596 28.5589C26.6334 28.0158 27.5957 28.0195 28.2653 28.5679Z" fill="url(#paint2_linear_4001_1217)"/>
<path d="M13.2891 37.682V26.2575C13.2891 24.842 14.8286 23.9635 16.0472 24.6837L25.1871 30.0846C26.3384 30.7649 27.7693 30.7624 28.9182 30.0781L37.9473 24.7C39.1659 23.9741 40.7109 24.8522 40.7109 26.2706V37.682C40.7109 38.6916 39.8925 39.5101 38.8828 39.5101H15.1172C14.1075 39.5101 13.2891 38.6916 13.2891 37.682Z" fill="#5768D9"/>
<circle cx="27.4565" cy="29.9119" r="5.02734" fill="#FAC515"/>
<path d="M27.4575 27.7567V32.0659" stroke="#444CE7" stroke-width="0.914062" stroke-linecap="round" stroke-linejoin="round"/>
<path d="M25.3027 29.757L27.4573 27.757L29.6119 29.757" stroke="#444CE7" stroke-width="0.914062" stroke-linecap="round" stroke-linejoin="round"/>
<defs>
<linearGradient id="paint0_linear_4001_1217" x1="39.2847" y1="16.9205" x2="27.6589" y2="48.1776" gradientUnits="userSpaceOnUse">
<stop stop-color="#90DDA1"/>
<stop offset="1" stop-color="#6BCB80"/>
</linearGradient>
<linearGradient id="paint1_linear_4001_1217" x1="27" y1="23.0568" x2="27.0194" y2="44.7813" gradientUnits="userSpaceOnUse">
<stop stop-color="#3B4DB9"/>
<stop offset="1" stop-color="#4261C8"/>
</linearGradient>
<linearGradient id="paint2_linear_4001_1217" x1="27" y1="26.2556" x2="27.0069" y2="43.3166" gradientUnits="userSpaceOnUse">
<stop stop-color="#6172F3"/>
<stop offset="1" stop-color="#5164ED"/>
</linearGradient>
</defs>
</svg>
