<svg width="54" height="55" viewBox="0 0 54 55" fill="none" xmlns="http://www.w3.org/2000/svg">
<rect y="0.626465" width="54" height="54" rx="27" fill="#EEF4FF"/>
<rect x="14.4946" y="18.2705" width="25.0108" height="12.7173" rx="1.82812" fill="url(#paint0_linear_4001_1295)"/>
<path fill-rule="evenodd" clip-rule="evenodd" d="M35.5846 18.2705L25.4556 30.9878H16.3222C15.3719 30.9878 14.591 30.2628 14.5024 29.3356L26.5943 18.2705H35.5846Z" fill="#94E3A6"/>
<path fill-rule="evenodd" clip-rule="evenodd" d="M36.1346 18.2711H37.6769C38.6866 18.2711 39.505 19.0895 39.505 20.0992V21.7177C39.388 21.7318 39.2689 21.739 39.1481 21.739C37.4723 21.739 36.1138 20.3498 36.1138 18.6362C36.1138 18.5126 36.1208 18.3908 36.1346 18.2711Z" fill="#62BD76"/>
<path fill-rule="evenodd" clip-rule="evenodd" d="M14.8598 21.7389C16.5734 21.7389 17.9626 20.3498 17.9626 18.6361C17.9626 18.5124 17.9554 18.3904 17.9413 18.2705H16.3228C15.3131 18.2705 14.4946 19.089 14.4946 20.0986V21.7177C14.6144 21.7317 14.7362 21.7389 14.8598 21.7389Z" fill="#62BD76"/>
<rect x="12.375" y="22.142" width="29.25" height="15.5391" rx="1.82812" fill="url(#paint1_linear_4001_1295)"/>
<path fill-rule="evenodd" clip-rule="evenodd" d="M37.6228 22.142H39.797C40.8066 22.142 41.6251 22.9605 41.6251 23.9702V26.1441C41.4861 26.1604 41.3447 26.1687 41.2014 26.1687C39.2114 26.1687 37.5981 24.5555 37.5981 22.5655C37.5981 22.4222 37.6065 22.2809 37.6228 22.142Z" fill="#2C40B6"/>
<path fill-rule="evenodd" clip-rule="evenodd" d="M41.6253 33.7678V35.8532C41.6253 36.8628 40.8068 37.6813 39.7972 37.6813H37.6228C37.6065 37.5454 37.5981 37.407 37.5981 37.2668C37.5981 35.321 39.2114 33.7437 41.2014 33.7437C41.3448 33.7437 41.4863 33.7518 41.6253 33.7678Z" fill="#2C40B6"/>
<circle cx="27" cy="30.3687" r="2.74219" fill="#2C40B6"/>
<path fill-rule="evenodd" clip-rule="evenodd" d="M12.7988 26.1688C14.7889 26.1688 16.4021 24.5555 16.4021 22.5655C16.4021 22.4223 16.3937 22.2809 16.3775 22.142H14.2031C13.1935 22.142 12.375 22.9605 12.375 23.9702V26.1441C12.514 26.1604 12.6555 26.1688 12.7988 26.1688Z" fill="#2C40B6"/>
<path fill-rule="evenodd" clip-rule="evenodd" d="M16.3774 37.6811H14.2031C13.1935 37.6811 12.375 36.8626 12.375 35.853V33.7678C12.514 33.7518 12.6555 33.7437 12.7989 33.7437C14.7889 33.7437 16.4021 35.3209 16.4021 37.2666C16.4021 37.4068 16.3937 37.5451 16.3774 37.6811Z" fill="#2C40B6"/>
<path opacity="0.2" d="M12.375 23.9702C12.375 22.9605 13.1935 22.142 14.2031 22.142H39.7969C40.8065 22.142 41.625 22.9605 41.625 23.9702V35.853C41.625 36.8626 40.8065 37.6811 39.7969 37.6811H14.2031C13.1935 37.6811 12.375 36.8626 12.375 35.853V23.9702Z" fill="#E0DCFF"/>
<circle cx="5.02734" cy="5.02734" r="5.02734" transform="matrix(1 0 0 -1 22.4297 39.5095)" fill="#FAC515"/>
<path d="M27.457 36.6365V32.3273" stroke="#3538CD" stroke-width="0.914062" stroke-linecap="round" stroke-linejoin="round"/>
<path d="M25.3022 34.6365L27.4568 36.6365L29.6114 34.6365" stroke="#3538CD" stroke-width="0.914062" stroke-linecap="round" stroke-linejoin="round"/>
<defs>
<linearGradient id="paint0_linear_4001_1295" x1="43.8061" y1="9.73315" x2="27.4251" y2="53.0412" gradientUnits="userSpaceOnUse">
<stop stop-color="#90DDA1"/>
<stop offset="1" stop-color="#6BCB80"/>
</linearGradient>
<linearGradient id="paint1_linear_4001_1295" x1="27" y1="22.142" x2="27.0162" y2="42.6596" gradientUnits="userSpaceOnUse">
<stop stop-color="#4C61E1"/>
<stop offset="1" stop-color="#6172F3"/>
</linearGradient>
</defs>
</svg>
